<?xml version="1.0" encoding="UTF-8" standalone="no"?>
<!DOCTYPE svg PUBLIC "-//W3C//DTD SVG 1.1//EN"
 "http://www.w3.org/Graphics/SVG/1.1/DTD/svg11.dtd">
<!-- Generated by graphviz version 12.1.2 (0)
 -->
<!-- Pages: 1 -->
<svg width="2082pt" height="342pt"
 viewBox="0.00 0.00 2081.88 342.00" xmlns="http://www.w3.org/2000/svg" xmlns:xlink="http://www.w3.org/1999/xlink">
<g id="graph0" class="graph" transform="scale(1 1) rotate(0) translate(4 338)">
<polygon fill="white" stroke="none" points="-4,4 -4,-338 2077.88,-338 2077.88,4 -4,4"/>
<!-- node_0x5cbf9804ad00 -->
<g id="node1" class="node">
<title>node_0x5cbf9804ad00</title>
<polygon fill="blue" stroke="black" points="881.75,-296.5 881.75,-333.5 1345,-333.5 1345,-296.5 881.75,-296.5"/>
<text text-anchor="middle" x="1113.38" y="-320.95" font-family="Times,serif" font-size="9.00">41</text>
<polyline fill="none" stroke="black" points="881.75,-315 1345,-315"/>
<text text-anchor="middle" x="931.38" y="-302.45" font-family="Times,serif" font-size="9.00">type = 3 (KEYWORD)</text>
<polyline fill="none" stroke="black" points="981,-296.5 981,-315"/>
<text text-anchor="middle" x="1029.5" y="-302.45" font-family="Times,serif" font-size="9.00">left = 0x5cbf9804b0a0</text>
<polyline fill="none" stroke="black" points="1078,-296.5 1078,-315"/>
<text text-anchor="middle" x="1129.5" y="-302.45" font-family="Times,serif" font-size="9.00">node = 0x5cbf9804ad00</text>
<polyline fill="none" stroke="black" points="1181,-296.5 1181,-315"/>
<text text-anchor="middle" x="1212.25" y="-302.45" font-family="Times,serif" font-size="9.00">parent = (nil)</text>
<polyline fill="none" stroke="black" points="1243.5,-296.5 1243.5,-315"/>
<text text-anchor="middle" x="1294.25" y="-302.45" font-family="Times,serif" font-size="9.00">right = 0x5cbf9804b0e0</text>
</g>
<!-- node_0x5cbf9804b0a0 -->
<g id="node2" class="node">
<title>node_0x5cbf9804b0a0</title>
<polygon fill="blue" stroke="black" points="563.88,-222.5 563.88,-259.5 1114.88,-259.5 1114.88,-222.5 563.88,-222.5"/>
<text text-anchor="middle" x="839.38" y="-246.95" font-family="Times,serif" font-size="9.00">0</text>
<polyline fill="none" stroke="black" points="563.88,-241 1114.88,-241"/>
<text text-anchor="middle" x="634.12" y="-228.45" font-family="Times,serif" font-size="9.00">type = 6 (VAR_DECLARATION)</text>
<polyline fill="none" stroke="black" points="704.38,-222.5 704.38,-241"/>
<text text-anchor="middle" x="753.25" y="-228.45" font-family="Times,serif" font-size="9.00">left = 0x5cbf9804b060</text>
<polyline fill="none" stroke="black" points="802.12,-222.5 802.12,-241"/>
<text text-anchor="middle" x="853.62" y="-228.45" font-family="Times,serif" font-size="9.00">node = 0x5cbf9804b0a0</text>
<polyline fill="none" stroke="black" points="905.12,-222.5 905.12,-241"/>
<text text-anchor="middle" x="958.88" y="-228.45" font-family="Times,serif" font-size="9.00">parent = 0x5cbf9804ad00</text>
<polyline fill="none" stroke="black" points="1012.62,-222.5 1012.62,-241"/>
<text text-anchor="middle" x="1063.75" y="-228.45" font-family="Times,serif" font-size="9.00">right = 0x5cbf9804b020</text>
</g>
<!-- node_0x5cbf9804ad00&#45;&gt;node_0x5cbf9804b0a0 -->
<g id="edge1" class="edge">
<title>node_0x5cbf9804ad00&#45;&gt;node_0x5cbf9804b0a0</title>
<path fill="none" stroke="black" d="M1044.94,-296.02C1006.54,-285.93 958.47,-273.29 918.47,-262.78"/>
<polygon fill="black" stroke="black" points="919.44,-259.42 908.88,-260.26 917.66,-266.19 919.44,-259.42"/>
</g>
<!-- node_0x5cbf9804b0e0 -->
<g id="node9" class="node">
<title>node_0x5cbf9804b0e0</title>
<polygon fill="blue" stroke="black" points="1132.5,-222.5 1132.5,-259.5 1642.25,-259.5 1642.25,-222.5 1132.5,-222.5"/>
<text text-anchor="middle" x="1387.38" y="-246.95" font-family="Times,serif" font-size="9.00">41</text>
<polyline fill="none" stroke="black" points="1132.5,-241 1642.25,-241"/>
<text text-anchor="middle" x="1182.12" y="-228.45" font-family="Times,serif" font-size="9.00">type = 3 (KEYWORD)</text>
<polyline fill="none" stroke="black" points="1231.75,-222.5 1231.75,-241"/>
<text text-anchor="middle" x="1280.62" y="-228.45" font-family="Times,serif" font-size="9.00">left = 0x5cbf9804b220</text>
<polyline fill="none" stroke="black" points="1329.5,-222.5 1329.5,-241"/>
<text text-anchor="middle" x="1381" y="-228.45" font-family="Times,serif" font-size="9.00">node = 0x5cbf9804b0e0</text>
<polyline fill="none" stroke="black" points="1432.5,-222.5 1432.5,-241"/>
<text text-anchor="middle" x="1486.25" y="-228.45" font-family="Times,serif" font-size="9.00">parent = 0x5cbf9804ad00</text>
<polyline fill="none" stroke="black" points="1540,-222.5 1540,-241"/>
<text text-anchor="middle" x="1591.12" y="-228.45" font-family="Times,serif" font-size="9.00">right = 0x5cbf9804b260</text>
</g>
<!-- node_0x5cbf9804ad00&#45;&gt;node_0x5cbf9804b0e0 -->
<g id="edge8" class="edge">
<title>node_0x5cbf9804ad00&#45;&gt;node_0x5cbf9804b0e0</title>
<path fill="none" stroke="black" d="M1181.81,-296.02C1220.21,-285.93 1268.28,-273.29 1308.28,-262.78"/>
<polygon fill="black" stroke="black" points="1309.09,-266.19 1317.87,-260.26 1307.31,-259.42 1309.09,-266.19"/>
</g>
<!-- node_0x5cbf9804b060 -->
<g id="node3" class="node">
<title>node_0x5cbf9804b060</title>
<polygon fill="blue" stroke="black" points="155.88,-148.5 155.88,-185.5 574.88,-185.5 574.88,-148.5 155.88,-148.5"/>
<text text-anchor="middle" x="365.38" y="-172.95" font-family="Times,serif" font-size="9.00">51</text>
<polyline fill="none" stroke="black" points="155.88,-167 574.88,-167"/>
<text text-anchor="middle" x="205.5" y="-154.45" font-family="Times,serif" font-size="9.00">type = 3 (KEYWORD)</text>
<polyline fill="none" stroke="black" points="255.12,-148.5 255.12,-167"/>
<text text-anchor="middle" x="281.12" y="-154.45" font-family="Times,serif" font-size="9.00">left = (nil)</text>
<polyline fill="none" stroke="black" points="307.12,-148.5 307.12,-167"/>
<text text-anchor="middle" x="359" y="-154.45" font-family="Times,serif" font-size="9.00">node = 0x5cbf9804b060</text>
<polyline fill="none" stroke="black" points="410.88,-148.5 410.88,-167"/>
<text text-anchor="middle" x="464.62" y="-154.45" font-family="Times,serif" font-size="9.00">parent = 0x5cbf9804b0a0</text>
<polyline fill="none" stroke="black" points="518.38,-148.5 518.38,-167"/>
<text text-anchor="middle" x="546.62" y="-154.45" font-family="Times,serif" font-size="9.00">right = (nil)</text>
</g>
<!-- node_0x5cbf9804b0a0&#45;&gt;node_0x5cbf9804b060 -->
<g id="edge2" class="edge">
<title>node_0x5cbf9804b0a0&#45;&gt;node_0x5cbf9804b060</title>
<path fill="none" stroke="black" d="M720.99,-222.02C652.14,-211.56 565.3,-198.37 494.68,-187.64"/>
<polygon fill="black" stroke="black" points="495.39,-184.21 484.98,-186.17 494.34,-191.13 495.39,-184.21"/>
</g>
<!-- node_0x5cbf9804b020 -->
<g id="node4" class="node">
<title>node_0x5cbf9804b020</title>
<polygon fill="blue" stroke="black" points="592.75,-148.5 592.75,-185.5 1098,-185.5 1098,-148.5 592.75,-148.5"/>
<text text-anchor="middle" x="845.38" y="-172.95" font-family="Times,serif" font-size="9.00">13</text>
<polyline fill="none" stroke="black" points="592.75,-167 1098,-167"/>
<text text-anchor="middle" x="642.38" y="-154.45" font-family="Times,serif" font-size="9.00">type = 3 (KEYWORD)</text>
<polyline fill="none" stroke="black" points="692,-148.5 692,-167"/>
<text text-anchor="middle" x="739.38" y="-154.45" font-family="Times,serif" font-size="9.00">left = 0x5cbf9804afe0</text>
<polyline fill="none" stroke="black" points="786.75,-148.5 786.75,-167"/>
<text text-anchor="middle" x="838.62" y="-154.45" font-family="Times,serif" font-size="9.00">node = 0x5cbf9804b020</text>
<polyline fill="none" stroke="black" points="890.5,-148.5 890.5,-167"/>
<text text-anchor="middle" x="944.25" y="-154.45" font-family="Times,serif" font-size="9.00">parent = 0x5cbf9804b0a0</text>
<polyline fill="none" stroke="black" points="998,-148.5 998,-167"/>
<text text-anchor="middle" x="1048" y="-154.45" font-family="Times,serif" font-size="9.00">right = 0x5cbf9804af20</text>
</g>
<!-- node_0x5cbf9804b0a0&#45;&gt;node_0x5cbf9804b020 -->
<g id="edge3" class="edge">
<title>node_0x5cbf9804b0a0&#45;&gt;node_0x5cbf9804b020</title>
<path fill="none" stroke="black" d="M840.86,-222.2C841.49,-214.67 842.23,-205.7 842.94,-197.25"/>
<polygon fill="black" stroke="black" points="846.42,-197.61 843.76,-187.35 839.44,-197.03 846.42,-197.61"/>
</g>
<!-- node_0x5cbf9804afe0 -->
<g id="node5" class="node">
<title>node_0x5cbf9804afe0</title>
<polygon fill="blue" stroke="black" points="129.88,-74.5 129.88,-111.5 632.88,-111.5 632.88,-74.5 129.88,-74.5"/>
<text text-anchor="middle" x="381.38" y="-98.95" font-family="Times,serif" font-size="9.00">24</text>
<polyline fill="none" stroke="black" points="129.88,-93 632.88,-93"/>
<text text-anchor="middle" x="179.5" y="-80.45" font-family="Times,serif" font-size="9.00">type = 3 (KEYWORD)</text>
<polyline fill="none" stroke="black" points="229.12,-74.5 229.12,-93"/>
<text text-anchor="middle" x="276.88" y="-80.45" font-family="Times,serif" font-size="9.00">left = 0x5cbf9804af60</text>
<polyline fill="none" stroke="black" points="324.62,-74.5 324.62,-93"/>
<text text-anchor="middle" x="375" y="-80.45" font-family="Times,serif" font-size="9.00">node = 0x5cbf9804afe0</text>
<polyline fill="none" stroke="black" points="425.38,-74.5 425.38,-93"/>
<text text-anchor="middle" x="479.5" y="-80.45" font-family="Times,serif" font-size="9.00">parent = 0x5cbf9804b020</text>
<polyline fill="none" stroke="black" points="533.62,-74.5 533.62,-93"/>
<text text-anchor="middle" x="583.25" y="-80.45" font-family="Times,serif" font-size="9.00">right = 0x5cbf9804afa0</text>
</g>
<!-- node_0x5cbf9804b020&#45;&gt;node_0x5cbf9804afe0 -->
<g id="edge4" class="edge">
<title>node_0x5cbf9804b020&#45;&gt;node_0x5cbf9804afe0</title>
<path fill="none" stroke="black" d="M729.49,-148.02C662.09,-137.56 577.09,-124.37 507.95,-113.64"/>
<polygon fill="black" stroke="black" points="508.91,-110.25 498.49,-112.17 507.83,-117.16 508.91,-110.25"/>
</g>
<!-- node_0x5cbf9804af20 -->
<g id="node8" class="node">
<title>node_0x5cbf9804af20</title>
<polygon fill="blue" stroke="black" points="650.75,-74.5 650.75,-111.5 1072,-111.5 1072,-74.5 650.75,-74.5"/>
<text text-anchor="middle" x="861.38" y="-98.95" font-family="Times,serif" font-size="9.00">0</text>
<polyline fill="none" stroke="black" points="650.75,-93 1072,-93"/>
<text text-anchor="middle" x="702.25" y="-80.45" font-family="Times,serif" font-size="9.00">type = 2 (IDENTIFIER)</text>
<polyline fill="none" stroke="black" points="753.75,-74.5 753.75,-93"/>
<text text-anchor="middle" x="779.75" y="-80.45" font-family="Times,serif" font-size="9.00">left = (nil)</text>
<polyline fill="none" stroke="black" points="805.75,-74.5 805.75,-93"/>
<text text-anchor="middle" x="856.5" y="-80.45" font-family="Times,serif" font-size="9.00">node = 0x5cbf9804af20</text>
<polyline fill="none" stroke="black" points="907.25,-74.5 907.25,-93"/>
<text text-anchor="middle" x="961.38" y="-80.45" font-family="Times,serif" font-size="9.00">parent = 0x5cbf9804b020</text>
<polyline fill="none" stroke="black" points="1015.5,-74.5 1015.5,-93"/>
<text text-anchor="middle" x="1043.75" y="-80.45" font-family="Times,serif" font-size="9.00">right = (nil)</text>
</g>
<!-- node_0x5cbf9804b020&#45;&gt;node_0x5cbf9804af20 -->
<g id="edge7" class="edge">
<title>node_0x5cbf9804b020&#45;&gt;node_0x5cbf9804af20</title>
<path fill="none" stroke="black" d="M849.33,-148.2C851.02,-140.59 853.04,-131.5 854.94,-122.96"/>
<polygon fill="black" stroke="black" points="858.33,-123.84 857.08,-113.32 851.5,-122.32 858.33,-123.84"/>
</g>
<!-- node_0x5cbf9804af60 -->
<g id="node6" class="node">
<title>node_0x5cbf9804af60</title>
<polygon fill="blue" stroke="black" points="0,-0.5 0,-37.5 416.75,-37.5 416.75,-0.5 0,-0.5"/>
<text text-anchor="middle" x="208.38" y="-24.95" font-family="Times,serif" font-size="9.00">7</text>
<polyline fill="none" stroke="black" points="0,-19 416.75,-19"/>
<text text-anchor="middle" x="50.75" y="-6.45" font-family="Times,serif" font-size="9.00">type = 1 (CONSTANT)</text>
<polyline fill="none" stroke="black" points="101.5,-0.5 101.5,-19"/>
<text text-anchor="middle" x="127.5" y="-6.45" font-family="Times,serif" font-size="9.00">left = (nil)</text>
<polyline fill="none" stroke="black" points="153.5,-0.5 153.5,-19"/>
<text text-anchor="middle" x="204.25" y="-6.45" font-family="Times,serif" font-size="9.00">node = 0x5cbf9804af60</text>
<polyline fill="none" stroke="black" points="255,-0.5 255,-19"/>
<text text-anchor="middle" x="307.62" y="-6.45" font-family="Times,serif" font-size="9.00">parent = 0x5cbf9804afe0</text>
<polyline fill="none" stroke="black" points="360.25,-0.5 360.25,-19"/>
<text text-anchor="middle" x="388.5" y="-6.45" font-family="Times,serif" font-size="9.00">right = (nil)</text>
</g>
<!-- node_0x5cbf9804afe0&#45;&gt;node_0x5cbf9804af60 -->
<g id="edge5" class="edge">
<title>node_0x5cbf9804afe0&#45;&gt;node_0x5cbf9804af60</title>
<path fill="none" stroke="black" d="M338.17,-74.02C315.06,-64.4 286.41,-52.48 261.91,-42.28"/>
<polygon fill="black" stroke="black" points="263.31,-39.07 252.73,-38.46 260.62,-45.53 263.31,-39.07"/>
</g>
<!-- node_0x5cbf9804afa0 -->
<g id="node7" class="node">
<title>node_0x5cbf9804afa0</title>
<polygon fill="blue" stroke="black" points="434.38,-0.5 434.38,-37.5 850.38,-37.5 850.38,-0.5 434.38,-0.5"/>
<text text-anchor="middle" x="642.38" y="-24.95" font-family="Times,serif" font-size="9.00">10</text>
<polyline fill="none" stroke="black" points="434.38,-19 850.38,-19"/>
<text text-anchor="middle" x="485.12" y="-6.45" font-family="Times,serif" font-size="9.00">type = 1 (CONSTANT)</text>
<polyline fill="none" stroke="black" points="535.88,-0.5 535.88,-19"/>
<text text-anchor="middle" x="561.88" y="-6.45" font-family="Times,serif" font-size="9.00">left = (nil)</text>
<polyline fill="none" stroke="black" points="587.88,-0.5 587.88,-19"/>
<text text-anchor="middle" x="638.25" y="-6.45" font-family="Times,serif" font-size="9.00">node = 0x5cbf9804afa0</text>
<polyline fill="none" stroke="black" points="688.62,-0.5 688.62,-19"/>
<text text-anchor="middle" x="741.25" y="-6.45" font-family="Times,serif" font-size="9.00">parent = 0x5cbf9804afe0</text>
<polyline fill="none" stroke="black" points="793.88,-0.5 793.88,-19"/>
<text text-anchor="middle" x="822.12" y="-6.45" font-family="Times,serif" font-size="9.00">right = (nil)</text>
</g>
<!-- node_0x5cbf9804afe0&#45;&gt;node_0x5cbf9804afa0 -->
<g id="edge6" class="edge">
<title>node_0x5cbf9804afe0&#45;&gt;node_0x5cbf9804afa0</title>
<path fill="none" stroke="black" d="M446.56,-74.02C482.98,-63.97 528.54,-51.4 566.55,-40.92"/>
<polygon fill="black" stroke="black" points="567.4,-44.31 576.11,-38.28 565.54,-37.57 567.4,-44.31"/>
</g>
<!-- node_0x5cbf9804b220 -->
<g id="node10" class="node">
<title>node_0x5cbf9804b220</title>
<polygon fill="blue" stroke="black" points="1127.5,-148.5 1127.5,-185.5 1637.25,-185.5 1637.25,-148.5 1127.5,-148.5"/>
<text text-anchor="middle" x="1382.38" y="-172.95" font-family="Times,serif" font-size="9.00">13</text>
<polyline fill="none" stroke="black" points="1127.5,-167 1637.25,-167"/>
<text text-anchor="middle" x="1177.12" y="-154.45" font-family="Times,serif" font-size="9.00">type = 3 (KEYWORD)</text>
<polyline fill="none" stroke="black" points="1226.75,-148.5 1226.75,-167"/>
<text text-anchor="middle" x="1275.25" y="-154.45" font-family="Times,serif" font-size="9.00">left = 0x5cbf9804b1e0</text>
<polyline fill="none" stroke="black" points="1323.75,-148.5 1323.75,-167"/>
<text text-anchor="middle" x="1375.62" y="-154.45" font-family="Times,serif" font-size="9.00">node = 0x5cbf9804b220</text>
<polyline fill="none" stroke="black" points="1427.5,-148.5 1427.5,-167"/>
<text text-anchor="middle" x="1481.25" y="-154.45" font-family="Times,serif" font-size="9.00">parent = 0x5cbf9804b0e0</text>
<polyline fill="none" stroke="black" points="1535,-148.5 1535,-167"/>
<text text-anchor="middle" x="1586.12" y="-154.45" font-family="Times,serif" font-size="9.00">right = 0x5cbf9804b120</text>
</g>
<!-- node_0x5cbf9804b0e0&#45;&gt;node_0x5cbf9804b220 -->
<g id="edge9" class="edge">
<title>node_0x5cbf9804b0e0&#45;&gt;node_0x5cbf9804b220</title>
<path fill="none" stroke="black" d="M1386.14,-222.2C1385.62,-214.67 1384.99,-205.7 1384.41,-197.25"/>
<polygon fill="black" stroke="black" points="1387.9,-197.09 1383.72,-187.35 1380.92,-197.57 1387.9,-197.09"/>
</g>
<!-- node_0x5cbf9804b260 -->
<g id="node15" class="node">
<title>node_0x5cbf9804b260</title>
<polygon fill="blue" stroke="black" points="1654.88,-148.5 1654.88,-185.5 2073.88,-185.5 2073.88,-148.5 1654.88,-148.5"/>
<text text-anchor="middle" x="1864.38" y="-172.95" font-family="Times,serif" font-size="9.00">41</text>
<polyline fill="none" stroke="black" points="1654.88,-167 2073.88,-167"/>
<text text-anchor="middle" x="1704.5" y="-154.45" font-family="Times,serif" font-size="9.00">type = 3 (KEYWORD)</text>
<polyline fill="none" stroke="black" points="1754.12,-148.5 1754.12,-167"/>
<text text-anchor="middle" x="1780.12" y="-154.45" font-family="Times,serif" font-size="9.00">left = (nil)</text>
<polyline fill="none" stroke="black" points="1806.12,-148.5 1806.12,-167"/>
<text text-anchor="middle" x="1858" y="-154.45" font-family="Times,serif" font-size="9.00">node = 0x5cbf9804b260</text>
<polyline fill="none" stroke="black" points="1909.88,-148.5 1909.88,-167"/>
<text text-anchor="middle" x="1963.62" y="-154.45" font-family="Times,serif" font-size="9.00">parent = 0x5cbf9804b0e0</text>
<polyline fill="none" stroke="black" points="2017.38,-148.5 2017.38,-167"/>
<text text-anchor="middle" x="2045.62" y="-154.45" font-family="Times,serif" font-size="9.00">right = (nil)</text>
</g>
<!-- node_0x5cbf9804b0e0&#45;&gt;node_0x5cbf9804b260 -->
<g id="edge14" class="edge">
<title>node_0x5cbf9804b0e0&#45;&gt;node_0x5cbf9804b260</title>
<path fill="none" stroke="black" d="M1506.51,-222.02C1575.79,-211.56 1663.18,-198.37 1734.26,-187.64"/>
<polygon fill="black" stroke="black" points="1734.66,-191.12 1744.02,-186.17 1733.61,-184.2 1734.66,-191.12"/>
</g>
<!-- node_0x5cbf9804b1e0 -->
<g id="node11" class="node">
<title>node_0x5cbf9804b1e0</title>
<polygon fill="blue" stroke="black" points="1111.5,-74.5 1111.5,-111.5 1621.25,-111.5 1621.25,-74.5 1111.5,-74.5"/>
<text text-anchor="middle" x="1366.38" y="-98.95" font-family="Times,serif" font-size="9.00">24</text>
<polyline fill="none" stroke="black" points="1111.5,-93 1621.25,-93"/>
<text text-anchor="middle" x="1161.12" y="-80.45" font-family="Times,serif" font-size="9.00">type = 3 (KEYWORD)</text>
<polyline fill="none" stroke="black" points="1210.75,-74.5 1210.75,-93"/>
<text text-anchor="middle" x="1259.62" y="-80.45" font-family="Times,serif" font-size="9.00">left = 0x5cbf9804b160</text>
<polyline fill="none" stroke="black" points="1308.5,-74.5 1308.5,-93"/>
<text text-anchor="middle" x="1360" y="-80.45" font-family="Times,serif" font-size="9.00">node = 0x5cbf9804b1e0</text>
<polyline fill="none" stroke="black" points="1411.5,-74.5 1411.5,-93"/>
<text text-anchor="middle" x="1465.62" y="-80.45" font-family="Times,serif" font-size="9.00">parent = 0x5cbf9804b220</text>
<polyline fill="none" stroke="black" points="1519.75,-74.5 1519.75,-93"/>
<text text-anchor="middle" x="1570.5" y="-80.45" font-family="Times,serif" font-size="9.00">right = 0x5cbf9804b1a0</text>
</g>
<!-- node_0x5cbf9804b220&#45;&gt;node_0x5cbf9804b1e0 -->
<g id="edge10" class="edge">
<title>node_0x5cbf9804b220&#45;&gt;node_0x5cbf9804b1e0</title>
<path fill="none" stroke="black" d="M1378.42,-148.2C1376.73,-140.59 1374.71,-131.5 1372.81,-122.96"/>
<polygon fill="black" stroke="black" points="1376.25,-122.32 1370.67,-113.32 1369.42,-123.84 1376.25,-122.32"/>
</g>
<!-- node_0x5cbf9804b120 -->
<g id="node14" class="node">
<title>node_0x5cbf9804b120</title>
<polygon fill="blue" stroke="black" points="1639.62,-74.5 1639.62,-111.5 2063.12,-111.5 2063.12,-74.5 1639.62,-74.5"/>
<text text-anchor="middle" x="1851.38" y="-98.95" font-family="Times,serif" font-size="9.00">0</text>
<polyline fill="none" stroke="black" points="1639.62,-93 2063.12,-93"/>
<text text-anchor="middle" x="1691.12" y="-80.45" font-family="Times,serif" font-size="9.00">type = 2 (IDENTIFIER)</text>
<polyline fill="none" stroke="black" points="1742.62,-74.5 1742.62,-93"/>
<text text-anchor="middle" x="1768.62" y="-80.45" font-family="Times,serif" font-size="9.00">left = (nil)</text>
<polyline fill="none" stroke="black" points="1794.62,-74.5 1794.62,-93"/>
<text text-anchor="middle" x="1846.5" y="-80.45" font-family="Times,serif" font-size="9.00">node = 0x5cbf9804b120</text>
<polyline fill="none" stroke="black" points="1898.38,-74.5 1898.38,-93"/>
<text text-anchor="middle" x="1952.5" y="-80.45" font-family="Times,serif" font-size="9.00">parent = 0x5cbf9804b220</text>
<polyline fill="none" stroke="black" points="2006.62,-74.5 2006.62,-93"/>
<text text-anchor="middle" x="2034.88" y="-80.45" font-family="Times,serif" font-size="9.00">right = (nil)</text>
</g>
<!-- node_0x5cbf9804b220&#45;&gt;node_0x5cbf9804b120 -->
<g id="edge13" class="edge">
<title>node_0x5cbf9804b220&#45;&gt;node_0x5cbf9804b120</title>
<path fill="none" stroke="black" d="M1499.51,-148.02C1567.63,-137.56 1653.55,-124.37 1723.44,-113.64"/>
<polygon fill="black" stroke="black" points="1723.66,-117.15 1733.02,-112.17 1722.6,-110.23 1723.66,-117.15"/>
</g>
<!-- node_0x5cbf9804b160 -->
<g id="node12" class="node">
<title>node_0x5cbf9804b160</title>
<polygon fill="blue" stroke="black" points="1001.75,-0.5 1001.75,-37.5 1423,-37.5 1423,-0.5 1001.75,-0.5"/>
<text text-anchor="middle" x="1212.38" y="-24.95" font-family="Times,serif" font-size="9.00">5</text>
<polyline fill="none" stroke="black" points="1001.75,-19 1423,-19"/>
<text text-anchor="middle" x="1052.5" y="-6.45" font-family="Times,serif" font-size="9.00">type = 1 (CONSTANT)</text>
<polyline fill="none" stroke="black" points="1103.25,-0.5 1103.25,-19"/>
<text text-anchor="middle" x="1129.25" y="-6.45" font-family="Times,serif" font-size="9.00">left = (nil)</text>
<polyline fill="none" stroke="black" points="1155.25,-0.5 1155.25,-19"/>
<text text-anchor="middle" x="1207.12" y="-6.45" font-family="Times,serif" font-size="9.00">node = 0x5cbf9804b160</text>
<polyline fill="none" stroke="black" points="1259,-0.5 1259,-19"/>
<text text-anchor="middle" x="1312.75" y="-6.45" font-family="Times,serif" font-size="9.00">parent = 0x5cbf9804b1e0</text>
<polyline fill="none" stroke="black" points="1366.5,-0.5 1366.5,-19"/>
<text text-anchor="middle" x="1394.75" y="-6.45" font-family="Times,serif" font-size="9.00">right = (nil)</text>
</g>
<!-- node_0x5cbf9804b1e0&#45;&gt;node_0x5cbf9804b160 -->
<g id="edge11" class="edge">
<title>node_0x5cbf9804b1e0&#45;&gt;node_0x5cbf9804b160</title>
<path fill="none" stroke="black" d="M1327.91,-74.02C1307.62,-64.53 1282.52,-52.8 1260.91,-42.69"/>
<polygon fill="black" stroke="black" points="1262.53,-39.58 1251.99,-38.52 1259.56,-45.93 1262.53,-39.58"/>
</g>
<!-- node_0x5cbf9804b1a0 -->
<g id="node13" class="node">
<title>node_0x5cbf9804b1a0</title>
<polygon fill="blue" stroke="black" points="1441.12,-0.5 1441.12,-37.5 1861.62,-37.5 1861.62,-0.5 1441.12,-0.5"/>
<text text-anchor="middle" x="1651.38" y="-24.95" font-family="Times,serif" font-size="9.00">7</text>
<polyline fill="none" stroke="black" points="1441.12,-19 1861.62,-19"/>
<text text-anchor="middle" x="1491.88" y="-6.45" font-family="Times,serif" font-size="9.00">type = 1 (CONSTANT)</text>
<polyline fill="none" stroke="black" points="1542.62,-0.5 1542.62,-19"/>
<text text-anchor="middle" x="1568.62" y="-6.45" font-family="Times,serif" font-size="9.00">left = (nil)</text>
<polyline fill="none" stroke="black" points="1594.62,-0.5 1594.62,-19"/>
<text text-anchor="middle" x="1646.12" y="-6.45" font-family="Times,serif" font-size="9.00">node = 0x5cbf9804b1a0</text>
<polyline fill="none" stroke="black" points="1697.62,-0.5 1697.62,-19"/>
<text text-anchor="middle" x="1751.38" y="-6.45" font-family="Times,serif" font-size="9.00">parent = 0x5cbf9804b1e0</text>
<polyline fill="none" stroke="black" points="1805.12,-0.5 1805.12,-19"/>
<text text-anchor="middle" x="1833.38" y="-6.45" font-family="Times,serif" font-size="9.00">right = (nil)</text>
</g>
<!-- node_0x5cbf9804b1e0&#45;&gt;node_0x5cbf9804b1a0 -->
<g id="edge12" class="edge">
<title>node_0x5cbf9804b1e0&#45;&gt;node_0x5cbf9804b1a0</title>
<path fill="none" stroke="black" d="M1437.56,-74.02C1477.66,-63.88 1527.93,-51.19 1569.64,-40.65"/>
<polygon fill="black" stroke="black" points="1570.3,-44.09 1579.14,-38.25 1568.59,-37.31 1570.3,-44.09"/>
</g>
</g>
</svg>
