<?xml version="1.0" encoding="UTF-8" standalone="no"?>
<!DOCTYPE svg PUBLIC "-//W3C//DTD SVG 1.1//EN"
 "http://www.w3.org/Graphics/SVG/1.1/DTD/svg11.dtd">
<!-- Generated by graphviz version 12.1.2 (0)
 -->
<!-- Pages: 1 -->
<svg width="2087pt" height="342pt"
 viewBox="0.00 0.00 2087.38 342.00" xmlns="http://www.w3.org/2000/svg" xmlns:xlink="http://www.w3.org/1999/xlink">
<g id="graph0" class="graph" transform="scale(1 1) rotate(0) translate(4 338)">
<polygon fill="white" stroke="none" points="-4,4 -4,-338 2083.38,-338 2083.38,4 -4,4"/>
<!-- node_0x6106bc1bed00 -->
<g id="node1" class="node">
<title>node_0x6106bc1bed00</title>
<polygon fill="blue" stroke="black" points="886.5,-296.5 886.5,-333.5 1351.25,-333.5 1351.25,-296.5 886.5,-296.5"/>
<text text-anchor="middle" x="1118.88" y="-320.95" font-family="Times,serif" font-size="9.00">41</text>
<polyline fill="none" stroke="black" points="886.5,-315 1351.25,-315"/>
<text text-anchor="middle" x="936.12" y="-302.45" font-family="Times,serif" font-size="9.00">type = 3 (KEYWORD)</text>
<polyline fill="none" stroke="black" points="985.75,-296.5 985.75,-315"/>
<text text-anchor="middle" x="1034.25" y="-302.45" font-family="Times,serif" font-size="9.00">left = 0x6106bc1bf0a0</text>
<polyline fill="none" stroke="black" points="1082.75,-296.5 1082.75,-315"/>
<text text-anchor="middle" x="1135" y="-302.45" font-family="Times,serif" font-size="9.00">node = 0x6106bc1bed00</text>
<polyline fill="none" stroke="black" points="1187.25,-296.5 1187.25,-315"/>
<text text-anchor="middle" x="1218.5" y="-302.45" font-family="Times,serif" font-size="9.00">parent = (nil)</text>
<polyline fill="none" stroke="black" points="1249.75,-296.5 1249.75,-315"/>
<text text-anchor="middle" x="1300.5" y="-302.45" font-family="Times,serif" font-size="9.00">right = 0x6106bc1bf0e0</text>
</g>
<!-- node_0x6106bc1bf0a0 -->
<g id="node2" class="node">
<title>node_0x6106bc1bf0a0</title>
<polygon fill="blue" stroke="black" points="567.62,-222.5 567.62,-259.5 1120.12,-259.5 1120.12,-222.5 567.62,-222.5"/>
<text text-anchor="middle" x="843.88" y="-246.95" font-family="Times,serif" font-size="9.00">0</text>
<polyline fill="none" stroke="black" points="567.62,-241 1120.12,-241"/>
<text text-anchor="middle" x="637.88" y="-228.45" font-family="Times,serif" font-size="9.00">type = 6 (VAR_DECLARATION)</text>
<polyline fill="none" stroke="black" points="708.12,-222.5 708.12,-241"/>
<text text-anchor="middle" x="757" y="-228.45" font-family="Times,serif" font-size="9.00">left = 0x6106bc1bf060</text>
<polyline fill="none" stroke="black" points="805.88,-222.5 805.88,-241"/>
<text text-anchor="middle" x="857.38" y="-228.45" font-family="Times,serif" font-size="9.00">node = 0x6106bc1bf0a0</text>
<polyline fill="none" stroke="black" points="908.88,-222.5 908.88,-241"/>
<text text-anchor="middle" x="963.38" y="-228.45" font-family="Times,serif" font-size="9.00">parent = 0x6106bc1bed00</text>
<polyline fill="none" stroke="black" points="1017.88,-222.5 1017.88,-241"/>
<text text-anchor="middle" x="1069" y="-228.45" font-family="Times,serif" font-size="9.00">right = 0x6106bc1bf020</text>
</g>
<!-- node_0x6106bc1bed00&#45;&gt;node_0x6106bc1bf0a0 -->
<g id="edge1" class="edge">
<title>node_0x6106bc1bed00&#45;&gt;node_0x6106bc1bf0a0</title>
<path fill="none" stroke="black" d="M1050.19,-296.02C1011.65,-285.93 963.4,-273.29 923.25,-262.78"/>
<polygon fill="black" stroke="black" points="924.18,-259.41 913.62,-260.26 922.41,-266.18 924.18,-259.41"/>
</g>
<!-- node_0x6106bc1bf0e0 -->
<g id="node9" class="node">
<title>node_0x6106bc1bf0e0</title>
<polygon fill="blue" stroke="black" points="1138.25,-222.5 1138.25,-259.5 1649.5,-259.5 1649.5,-222.5 1138.25,-222.5"/>
<text text-anchor="middle" x="1393.88" y="-246.95" font-family="Times,serif" font-size="9.00">41</text>
<polyline fill="none" stroke="black" points="1138.25,-241 1649.5,-241"/>
<text text-anchor="middle" x="1187.88" y="-228.45" font-family="Times,serif" font-size="9.00">type = 3 (KEYWORD)</text>
<polyline fill="none" stroke="black" points="1237.5,-222.5 1237.5,-241"/>
<text text-anchor="middle" x="1286.38" y="-228.45" font-family="Times,serif" font-size="9.00">left = 0x6106bc1bf220</text>
<polyline fill="none" stroke="black" points="1335.25,-222.5 1335.25,-241"/>
<text text-anchor="middle" x="1386.75" y="-228.45" font-family="Times,serif" font-size="9.00">node = 0x6106bc1bf0e0</text>
<polyline fill="none" stroke="black" points="1438.25,-222.5 1438.25,-241"/>
<text text-anchor="middle" x="1492.75" y="-228.45" font-family="Times,serif" font-size="9.00">parent = 0x6106bc1bed00</text>
<polyline fill="none" stroke="black" points="1547.25,-222.5 1547.25,-241"/>
<text text-anchor="middle" x="1598.38" y="-228.45" font-family="Times,serif" font-size="9.00">right = 0x6106bc1bf260</text>
</g>
<!-- node_0x6106bc1bed00&#45;&gt;node_0x6106bc1bf0e0 -->
<g id="edge8" class="edge">
<title>node_0x6106bc1bed00&#45;&gt;node_0x6106bc1bf0e0</title>
<path fill="none" stroke="black" d="M1187.56,-296.02C1226.1,-285.93 1274.35,-273.29 1314.5,-262.78"/>
<polygon fill="black" stroke="black" points="1315.34,-266.18 1324.13,-260.26 1313.57,-259.41 1315.34,-266.18"/>
</g>
<!-- node_0x6106bc1bf060 -->
<g id="node3" class="node">
<title>node_0x6106bc1bf060</title>
<polygon fill="blue" stroke="black" points="158.38,-148.5 158.38,-185.5 577.38,-185.5 577.38,-148.5 158.38,-148.5"/>
<text text-anchor="middle" x="367.88" y="-172.95" font-family="Times,serif" font-size="9.00">51</text>
<polyline fill="none" stroke="black" points="158.38,-167 577.38,-167"/>
<text text-anchor="middle" x="208" y="-154.45" font-family="Times,serif" font-size="9.00">type = 3 (KEYWORD)</text>
<polyline fill="none" stroke="black" points="257.62,-148.5 257.62,-167"/>
<text text-anchor="middle" x="283.62" y="-154.45" font-family="Times,serif" font-size="9.00">left = (nil)</text>
<polyline fill="none" stroke="black" points="309.62,-148.5 309.62,-167"/>
<text text-anchor="middle" x="361.5" y="-154.45" font-family="Times,serif" font-size="9.00">node = 0x6106bc1bf060</text>
<polyline fill="none" stroke="black" points="413.38,-148.5 413.38,-167"/>
<text text-anchor="middle" x="467.12" y="-154.45" font-family="Times,serif" font-size="9.00">parent = 0x6106bc1bf0a0</text>
<polyline fill="none" stroke="black" points="520.88,-148.5 520.88,-167"/>
<text text-anchor="middle" x="549.12" y="-154.45" font-family="Times,serif" font-size="9.00">right = (nil)</text>
</g>
<!-- node_0x6106bc1bf0a0&#45;&gt;node_0x6106bc1bf060 -->
<g id="edge2" class="edge">
<title>node_0x6106bc1bf0a0&#45;&gt;node_0x6106bc1bf060</title>
<path fill="none" stroke="black" d="M724.99,-222.02C655.85,-211.56 568.65,-198.37 497.72,-187.64"/>
<polygon fill="black" stroke="black" points="498.39,-184.2 487.98,-186.17 497.34,-191.12 498.39,-184.2"/>
</g>
<!-- node_0x6106bc1bf020 -->
<g id="node4" class="node">
<title>node_0x6106bc1bf020</title>
<polygon fill="blue" stroke="black" points="595.75,-148.5 595.75,-185.5 1104,-185.5 1104,-148.5 595.75,-148.5"/>
<text text-anchor="middle" x="849.88" y="-172.95" font-family="Times,serif" font-size="9.00">13</text>
<polyline fill="none" stroke="black" points="595.75,-167 1104,-167"/>
<text text-anchor="middle" x="645.38" y="-154.45" font-family="Times,serif" font-size="9.00">type = 3 (KEYWORD)</text>
<polyline fill="none" stroke="black" points="695,-148.5 695,-167"/>
<text text-anchor="middle" x="743.12" y="-154.45" font-family="Times,serif" font-size="9.00">left = 0x6106bc1befe0</text>
<polyline fill="none" stroke="black" points="791.25,-148.5 791.25,-167"/>
<text text-anchor="middle" x="843.12" y="-154.45" font-family="Times,serif" font-size="9.00">node = 0x6106bc1bf020</text>
<polyline fill="none" stroke="black" points="895,-148.5 895,-167"/>
<text text-anchor="middle" x="948.75" y="-154.45" font-family="Times,serif" font-size="9.00">parent = 0x6106bc1bf0a0</text>
<polyline fill="none" stroke="black" points="1002.5,-148.5 1002.5,-167"/>
<text text-anchor="middle" x="1053.25" y="-154.45" font-family="Times,serif" font-size="9.00">right = 0x6106bc1bef20</text>
</g>
<!-- node_0x6106bc1bf0a0&#45;&gt;node_0x6106bc1bf020 -->
<g id="edge3" class="edge">
<title>node_0x6106bc1bf0a0&#45;&gt;node_0x6106bc1bf020</title>
<path fill="none" stroke="black" d="M845.36,-222.2C845.99,-214.67 846.73,-205.7 847.44,-197.25"/>
<polygon fill="black" stroke="black" points="850.92,-197.61 848.26,-187.35 843.94,-197.03 850.92,-197.61"/>
</g>
<!-- node_0x6106bc1befe0 -->
<g id="node5" class="node">
<title>node_0x6106bc1befe0</title>
<polygon fill="blue" stroke="black" points="129.12,-74.5 129.12,-111.5 636.62,-111.5 636.62,-74.5 129.12,-74.5"/>
<text text-anchor="middle" x="382.88" y="-98.95" font-family="Times,serif" font-size="9.00">24</text>
<polyline fill="none" stroke="black" points="129.12,-93 636.62,-93"/>
<text text-anchor="middle" x="178.75" y="-80.45" font-family="Times,serif" font-size="9.00">type = 3 (KEYWORD)</text>
<polyline fill="none" stroke="black" points="228.38,-74.5 228.38,-93"/>
<text text-anchor="middle" x="276.88" y="-80.45" font-family="Times,serif" font-size="9.00">left = 0x6106bc1bef60</text>
<polyline fill="none" stroke="black" points="325.38,-74.5 325.38,-93"/>
<text text-anchor="middle" x="376.5" y="-80.45" font-family="Times,serif" font-size="9.00">node = 0x6106bc1befe0</text>
<polyline fill="none" stroke="black" points="427.62,-74.5 427.62,-93"/>
<text text-anchor="middle" x="481.75" y="-80.45" font-family="Times,serif" font-size="9.00">parent = 0x6106bc1bf020</text>
<polyline fill="none" stroke="black" points="535.88,-74.5 535.88,-93"/>
<text text-anchor="middle" x="586.25" y="-80.45" font-family="Times,serif" font-size="9.00">right = 0x6106bc1befa0</text>
</g>
<!-- node_0x6106bc1bf020&#45;&gt;node_0x6106bc1befe0 -->
<g id="edge4" class="edge">
<title>node_0x6106bc1bf020&#45;&gt;node_0x6106bc1befe0</title>
<path fill="none" stroke="black" d="M733.24,-148.02C665.41,-137.56 579.85,-124.37 510.27,-113.64"/>
<polygon fill="black" stroke="black" points="511.15,-110.24 500.74,-112.17 510.09,-117.15 511.15,-110.24"/>
</g>
<!-- node_0x6106bc1bef20 -->
<g id="node8" class="node">
<title>node_0x6106bc1bef20</title>
<polygon fill="blue" stroke="black" points="654.5,-74.5 654.5,-111.5 1077.25,-111.5 1077.25,-74.5 654.5,-74.5"/>
<text text-anchor="middle" x="865.88" y="-98.95" font-family="Times,serif" font-size="9.00">0</text>
<polyline fill="none" stroke="black" points="654.5,-93 1077.25,-93"/>
<text text-anchor="middle" x="706" y="-80.45" font-family="Times,serif" font-size="9.00">type = 2 (IDENTIFIER)</text>
<polyline fill="none" stroke="black" points="757.5,-74.5 757.5,-93"/>
<text text-anchor="middle" x="783.5" y="-80.45" font-family="Times,serif" font-size="9.00">left = (nil)</text>
<polyline fill="none" stroke="black" points="809.5,-74.5 809.5,-93"/>
<text text-anchor="middle" x="861" y="-80.45" font-family="Times,serif" font-size="9.00">node = 0x6106bc1bef20</text>
<polyline fill="none" stroke="black" points="912.5,-74.5 912.5,-93"/>
<text text-anchor="middle" x="966.62" y="-80.45" font-family="Times,serif" font-size="9.00">parent = 0x6106bc1bf020</text>
<polyline fill="none" stroke="black" points="1020.75,-74.5 1020.75,-93"/>
<text text-anchor="middle" x="1049" y="-80.45" font-family="Times,serif" font-size="9.00">right = (nil)</text>
</g>
<!-- node_0x6106bc1bf020&#45;&gt;node_0x6106bc1bef20 -->
<g id="edge7" class="edge">
<title>node_0x6106bc1bf020&#45;&gt;node_0x6106bc1bef20</title>
<path fill="none" stroke="black" d="M853.83,-148.2C855.52,-140.59 857.54,-131.5 859.44,-122.96"/>
<polygon fill="black" stroke="black" points="862.83,-123.84 861.58,-113.32 856,-122.32 862.83,-123.84"/>
</g>
<!-- node_0x6106bc1bef60 -->
<g id="node6" class="node">
<title>node_0x6106bc1bef60</title>
<polygon fill="blue" stroke="black" points="0,-0.5 0,-37.5 419.75,-37.5 419.75,-0.5 0,-0.5"/>
<text text-anchor="middle" x="209.88" y="-24.95" font-family="Times,serif" font-size="9.00">7</text>
<polyline fill="none" stroke="black" points="0,-19 419.75,-19"/>
<text text-anchor="middle" x="50.75" y="-6.45" font-family="Times,serif" font-size="9.00">type = 1 (CONSTANT)</text>
<polyline fill="none" stroke="black" points="101.5,-0.5 101.5,-19"/>
<text text-anchor="middle" x="127.5" y="-6.45" font-family="Times,serif" font-size="9.00">left = (nil)</text>
<polyline fill="none" stroke="black" points="153.5,-0.5 153.5,-19"/>
<text text-anchor="middle" x="205" y="-6.45" font-family="Times,serif" font-size="9.00">node = 0x6106bc1bef60</text>
<polyline fill="none" stroke="black" points="256.5,-0.5 256.5,-19"/>
<text text-anchor="middle" x="309.88" y="-6.45" font-family="Times,serif" font-size="9.00">parent = 0x6106bc1befe0</text>
<polyline fill="none" stroke="black" points="363.25,-0.5 363.25,-19"/>
<text text-anchor="middle" x="391.5" y="-6.45" font-family="Times,serif" font-size="9.00">right = (nil)</text>
</g>
<!-- node_0x6106bc1befe0&#45;&gt;node_0x6106bc1bef60 -->
<g id="edge5" class="edge">
<title>node_0x6106bc1befe0&#45;&gt;node_0x6106bc1bef60</title>
<path fill="none" stroke="black" d="M339.67,-74.02C316.56,-64.4 287.91,-52.48 263.41,-42.28"/>
<polygon fill="black" stroke="black" points="264.81,-39.07 254.23,-38.46 262.12,-45.53 264.81,-39.07"/>
</g>
<!-- node_0x6106bc1befa0 -->
<g id="node7" class="node">
<title>node_0x6106bc1befa0</title>
<polygon fill="blue" stroke="black" points="437.38,-0.5 437.38,-37.5 856.38,-37.5 856.38,-0.5 437.38,-0.5"/>
<text text-anchor="middle" x="646.88" y="-24.95" font-family="Times,serif" font-size="9.00">10</text>
<polyline fill="none" stroke="black" points="437.38,-19 856.38,-19"/>
<text text-anchor="middle" x="488.12" y="-6.45" font-family="Times,serif" font-size="9.00">type = 1 (CONSTANT)</text>
<polyline fill="none" stroke="black" points="538.88,-0.5 538.88,-19"/>
<text text-anchor="middle" x="564.88" y="-6.45" font-family="Times,serif" font-size="9.00">left = (nil)</text>
<polyline fill="none" stroke="black" points="590.88,-0.5 590.88,-19"/>
<text text-anchor="middle" x="642" y="-6.45" font-family="Times,serif" font-size="9.00">node = 0x6106bc1befa0</text>
<polyline fill="none" stroke="black" points="693.12,-0.5 693.12,-19"/>
<text text-anchor="middle" x="746.5" y="-6.45" font-family="Times,serif" font-size="9.00">parent = 0x6106bc1befe0</text>
<polyline fill="none" stroke="black" points="799.88,-0.5 799.88,-19"/>
<text text-anchor="middle" x="828.12" y="-6.45" font-family="Times,serif" font-size="9.00">right = (nil)</text>
</g>
<!-- node_0x6106bc1befe0&#45;&gt;node_0x6106bc1befa0 -->
<g id="edge6" class="edge">
<title>node_0x6106bc1befe0&#45;&gt;node_0x6106bc1befa0</title>
<path fill="none" stroke="black" d="M448.81,-74.02C485.81,-63.93 532.13,-51.29 570.67,-40.78"/>
<polygon fill="black" stroke="black" points="571.13,-44.28 579.86,-38.28 569.29,-37.53 571.13,-44.28"/>
</g>
<!-- node_0x6106bc1bf220 -->
<g id="node10" class="node">
<title>node_0x6106bc1bf220</title>
<polygon fill="blue" stroke="black" points="1133,-148.5 1133,-185.5 1642.75,-185.5 1642.75,-148.5 1133,-148.5"/>
<text text-anchor="middle" x="1387.88" y="-172.95" font-family="Times,serif" font-size="9.00">13</text>
<polyline fill="none" stroke="black" points="1133,-167 1642.75,-167"/>
<text text-anchor="middle" x="1182.62" y="-154.45" font-family="Times,serif" font-size="9.00">type = 3 (KEYWORD)</text>
<polyline fill="none" stroke="black" points="1232.25,-148.5 1232.25,-167"/>
<text text-anchor="middle" x="1280.75" y="-154.45" font-family="Times,serif" font-size="9.00">left = 0x6106bc1bf1e0</text>
<polyline fill="none" stroke="black" points="1329.25,-148.5 1329.25,-167"/>
<text text-anchor="middle" x="1381.12" y="-154.45" font-family="Times,serif" font-size="9.00">node = 0x6106bc1bf220</text>
<polyline fill="none" stroke="black" points="1433,-148.5 1433,-167"/>
<text text-anchor="middle" x="1486.75" y="-154.45" font-family="Times,serif" font-size="9.00">parent = 0x6106bc1bf0e0</text>
<polyline fill="none" stroke="black" points="1540.5,-148.5 1540.5,-167"/>
<text text-anchor="middle" x="1591.62" y="-154.45" font-family="Times,serif" font-size="9.00">right = 0x6106bc1bf120</text>
</g>
<!-- node_0x6106bc1bf0e0&#45;&gt;node_0x6106bc1bf220 -->
<g id="edge9" class="edge">
<title>node_0x6106bc1bf0e0&#45;&gt;node_0x6106bc1bf220</title>
<path fill="none" stroke="black" d="M1392.39,-222.2C1391.76,-214.67 1391.02,-205.7 1390.31,-197.25"/>
<polygon fill="black" stroke="black" points="1393.81,-197.03 1389.49,-187.35 1386.83,-197.61 1393.81,-197.03"/>
</g>
<!-- node_0x6106bc1bf260 -->
<g id="node15" class="node">
<title>node_0x6106bc1bf260</title>
<polygon fill="blue" stroke="black" points="1660.38,-148.5 1660.38,-185.5 2079.38,-185.5 2079.38,-148.5 1660.38,-148.5"/>
<text text-anchor="middle" x="1869.88" y="-172.95" font-family="Times,serif" font-size="9.00">41</text>
<polyline fill="none" stroke="black" points="1660.38,-167 2079.38,-167"/>
<text text-anchor="middle" x="1710" y="-154.45" font-family="Times,serif" font-size="9.00">type = 3 (KEYWORD)</text>
<polyline fill="none" stroke="black" points="1759.62,-148.5 1759.62,-167"/>
<text text-anchor="middle" x="1785.62" y="-154.45" font-family="Times,serif" font-size="9.00">left = (nil)</text>
<polyline fill="none" stroke="black" points="1811.62,-148.5 1811.62,-167"/>
<text text-anchor="middle" x="1863.5" y="-154.45" font-family="Times,serif" font-size="9.00">node = 0x6106bc1bf260</text>
<polyline fill="none" stroke="black" points="1915.38,-148.5 1915.38,-167"/>
<text text-anchor="middle" x="1969.12" y="-154.45" font-family="Times,serif" font-size="9.00">parent = 0x6106bc1bf0e0</text>
<polyline fill="none" stroke="black" points="2022.88,-148.5 2022.88,-167"/>
<text text-anchor="middle" x="2051.12" y="-154.45" font-family="Times,serif" font-size="9.00">right = (nil)</text>
</g>
<!-- node_0x6106bc1bf0e0&#45;&gt;node_0x6106bc1bf260 -->
<g id="edge14" class="edge">
<title>node_0x6106bc1bf0e0&#45;&gt;node_0x6106bc1bf260</title>
<path fill="none" stroke="black" d="M1512.76,-222.02C1581.9,-211.56 1669.1,-198.37 1740.03,-187.64"/>
<polygon fill="black" stroke="black" points="1740.41,-191.12 1749.77,-186.17 1739.36,-184.2 1740.41,-191.12"/>
</g>
<!-- node_0x6106bc1bf1e0 -->
<g id="node11" class="node">
<title>node_0x6106bc1bf1e0</title>
<polygon fill="blue" stroke="black" points="1116,-74.5 1116,-111.5 1625.75,-111.5 1625.75,-74.5 1116,-74.5"/>
<text text-anchor="middle" x="1370.88" y="-98.95" font-family="Times,serif" font-size="9.00">24</text>
<polyline fill="none" stroke="black" points="1116,-93 1625.75,-93"/>
<text text-anchor="middle" x="1165.62" y="-80.45" font-family="Times,serif" font-size="9.00">type = 3 (KEYWORD)</text>
<polyline fill="none" stroke="black" points="1215.25,-74.5 1215.25,-93"/>
<text text-anchor="middle" x="1264.12" y="-80.45" font-family="Times,serif" font-size="9.00">left = 0x6106bc1bf160</text>
<polyline fill="none" stroke="black" points="1313,-74.5 1313,-93"/>
<text text-anchor="middle" x="1364.5" y="-80.45" font-family="Times,serif" font-size="9.00">node = 0x6106bc1bf1e0</text>
<polyline fill="none" stroke="black" points="1416,-74.5 1416,-93"/>
<text text-anchor="middle" x="1470.12" y="-80.45" font-family="Times,serif" font-size="9.00">parent = 0x6106bc1bf220</text>
<polyline fill="none" stroke="black" points="1524.25,-74.5 1524.25,-93"/>
<text text-anchor="middle" x="1575" y="-80.45" font-family="Times,serif" font-size="9.00">right = 0x6106bc1bf1a0</text>
</g>
<!-- node_0x6106bc1bf220&#45;&gt;node_0x6106bc1bf1e0 -->
<g id="edge10" class="edge">
<title>node_0x6106bc1bf220&#45;&gt;node_0x6106bc1bf1e0</title>
<path fill="none" stroke="black" d="M1383.67,-148.2C1381.87,-140.59 1379.73,-131.5 1377.71,-122.96"/>
<polygon fill="black" stroke="black" points="1381.14,-122.24 1375.44,-113.32 1374.33,-123.85 1381.14,-122.24"/>
</g>
<!-- node_0x6106bc1bf120 -->
<g id="node14" class="node">
<title>node_0x6106bc1bf120</title>
<polygon fill="blue" stroke="black" points="1644.12,-74.5 1644.12,-111.5 2067.62,-111.5 2067.62,-74.5 1644.12,-74.5"/>
<text text-anchor="middle" x="1855.88" y="-98.95" font-family="Times,serif" font-size="9.00">0</text>
<polyline fill="none" stroke="black" points="1644.12,-93 2067.62,-93"/>
<text text-anchor="middle" x="1695.62" y="-80.45" font-family="Times,serif" font-size="9.00">type = 2 (IDENTIFIER)</text>
<polyline fill="none" stroke="black" points="1747.12,-74.5 1747.12,-93"/>
<text text-anchor="middle" x="1773.12" y="-80.45" font-family="Times,serif" font-size="9.00">left = (nil)</text>
<polyline fill="none" stroke="black" points="1799.12,-74.5 1799.12,-93"/>
<text text-anchor="middle" x="1851" y="-80.45" font-family="Times,serif" font-size="9.00">node = 0x6106bc1bf120</text>
<polyline fill="none" stroke="black" points="1902.88,-74.5 1902.88,-93"/>
<text text-anchor="middle" x="1957" y="-80.45" font-family="Times,serif" font-size="9.00">parent = 0x6106bc1bf220</text>
<polyline fill="none" stroke="black" points="2011.12,-74.5 2011.12,-93"/>
<text text-anchor="middle" x="2039.38" y="-80.45" font-family="Times,serif" font-size="9.00">right = (nil)</text>
</g>
<!-- node_0x6106bc1bf220&#45;&gt;node_0x6106bc1bf120 -->
<g id="edge13" class="edge">
<title>node_0x6106bc1bf220&#45;&gt;node_0x6106bc1bf120</title>
<path fill="none" stroke="black" d="M1504.76,-148.02C1572.74,-137.56 1658.48,-124.37 1728.21,-113.64"/>
<polygon fill="black" stroke="black" points="1728.41,-117.15 1737.76,-112.17 1727.35,-110.23 1728.41,-117.15"/>
</g>
<!-- node_0x6106bc1bf160 -->
<g id="node12" class="node">
<title>node_0x6106bc1bf160</title>
<polygon fill="blue" stroke="black" points="1006.25,-0.5 1006.25,-37.5 1427.5,-37.5 1427.5,-0.5 1006.25,-0.5"/>
<text text-anchor="middle" x="1216.88" y="-24.95" font-family="Times,serif" font-size="9.00">5</text>
<polyline fill="none" stroke="black" points="1006.25,-19 1427.5,-19"/>
<text text-anchor="middle" x="1057" y="-6.45" font-family="Times,serif" font-size="9.00">type = 1 (CONSTANT)</text>
<polyline fill="none" stroke="black" points="1107.75,-0.5 1107.75,-19"/>
<text text-anchor="middle" x="1133.75" y="-6.45" font-family="Times,serif" font-size="9.00">left = (nil)</text>
<polyline fill="none" stroke="black" points="1159.75,-0.5 1159.75,-19"/>
<text text-anchor="middle" x="1211.62" y="-6.45" font-family="Times,serif" font-size="9.00">node = 0x6106bc1bf160</text>
<polyline fill="none" stroke="black" points="1263.5,-0.5 1263.5,-19"/>
<text text-anchor="middle" x="1317.25" y="-6.45" font-family="Times,serif" font-size="9.00">parent = 0x6106bc1bf1e0</text>
<polyline fill="none" stroke="black" points="1371,-0.5 1371,-19"/>
<text text-anchor="middle" x="1399.25" y="-6.45" font-family="Times,serif" font-size="9.00">right = (nil)</text>
</g>
<!-- node_0x6106bc1bf1e0&#45;&gt;node_0x6106bc1bf160 -->
<g id="edge11" class="edge">
<title>node_0x6106bc1bf1e0&#45;&gt;node_0x6106bc1bf160</title>
<path fill="none" stroke="black" d="M1332.41,-74.02C1312.12,-64.53 1287.02,-52.8 1265.41,-42.69"/>
<polygon fill="black" stroke="black" points="1267.03,-39.58 1256.49,-38.52 1264.06,-45.93 1267.03,-39.58"/>
</g>
<!-- node_0x6106bc1bf1a0 -->
<g id="node13" class="node">
<title>node_0x6106bc1bf1a0</title>
<polygon fill="blue" stroke="black" points="1445.62,-0.5 1445.62,-37.5 1866.12,-37.5 1866.12,-0.5 1445.62,-0.5"/>
<text text-anchor="middle" x="1655.88" y="-24.95" font-family="Times,serif" font-size="9.00">7</text>
<polyline fill="none" stroke="black" points="1445.62,-19 1866.12,-19"/>
<text text-anchor="middle" x="1496.38" y="-6.45" font-family="Times,serif" font-size="9.00">type = 1 (CONSTANT)</text>
<polyline fill="none" stroke="black" points="1547.12,-0.5 1547.12,-19"/>
<text text-anchor="middle" x="1573.12" y="-6.45" font-family="Times,serif" font-size="9.00">left = (nil)</text>
<polyline fill="none" stroke="black" points="1599.12,-0.5 1599.12,-19"/>
<text text-anchor="middle" x="1650.62" y="-6.45" font-family="Times,serif" font-size="9.00">node = 0x6106bc1bf1a0</text>
<polyline fill="none" stroke="black" points="1702.12,-0.5 1702.12,-19"/>
<text text-anchor="middle" x="1755.88" y="-6.45" font-family="Times,serif" font-size="9.00">parent = 0x6106bc1bf1e0</text>
<polyline fill="none" stroke="black" points="1809.62,-0.5 1809.62,-19"/>
<text text-anchor="middle" x="1837.88" y="-6.45" font-family="Times,serif" font-size="9.00">right = (nil)</text>
</g>
<!-- node_0x6106bc1bf1e0&#45;&gt;node_0x6106bc1bf1a0 -->
<g id="edge12" class="edge">
<title>node_0x6106bc1bf1e0&#45;&gt;node_0x6106bc1bf1a0</title>
<path fill="none" stroke="black" d="M1442.06,-74.02C1482.16,-63.88 1532.43,-51.19 1574.14,-40.65"/>
<polygon fill="black" stroke="black" points="1574.8,-44.09 1583.64,-38.25 1573.09,-37.31 1574.8,-44.09"/>
</g>
</g>
</svg>
